<svg xmlns="http://www.w3.org/2000/svg" version="1.1" xmlns:xlink="http://www.w3.org/1999/xlink" xmlns:svgjs="http://svgjs.dev/svgjs" width="1500" height="1500" viewBox="0 0 1500 1500"><rect width="1500" height="1500" fill="#ffdc00"></rect><g transform="matrix(0.6666666666666666,0,0,0.6666666666666666,249.39393939393938,652.7282603602729)"><svg viewBox="0 0 396 77" data-background-color="#ffdc00" preserveAspectRatio="xMidYMid meet" height="291" width="1500" xmlns="http://www.w3.org/2000/svg" xmlns:xlink="http://www.w3.org/1999/xlink"><g id="tight-bounds" transform="matrix(1,0,0,1,0.2400000000000091,0.1078554240153835)"><svg viewBox="0 0 395.52 76.78428915196923" height="76.78428915196923" width="395.52"><g><svg viewBox="0 0 511.8658677583972 99.37109829334652" height="76.78428915196923" width="395.52"><g transform="matrix(1,0,0,1,116.34586775839722,13.733632253277271)"><svg viewBox="0 0 395.52 71.90383378679198" height="71.90383378679198" width="395.52"><g id="textblocktransform"><svg viewBox="0 0 395.52 71.90383378679198" height="71.90383378679198" width="395.52" id="textblock"><g><svg viewBox="0 0 395.52 71.90383378679198" height="71.90383378679198" width="395.52"><g transform="matrix(1,0,0,1,0,0)"><svg width="395.52" viewBox="1.7 -36.15 202.13000000000002 36.75" height="71.90383378679198" data-palette-color="#111111"><path d="M1.7 0L6.55-34.3 18.3-34.3Q22.95-34.3 25.35-31.95 27.75-29.6 27.75-25.6L27.75-25.6Q27.75-22.05 26.3-19.45 24.85-16.85 22.23-15.5 19.6-14.15 16.15-14.15L16.15-14.15 8.1-14.15 6.1 0 1.7 0ZM8.7-18.15L16.6-18.15Q19.45-18.15 21.28-19.98 23.1-21.8 23.1-24.8L23.1-24.8Q23.1-27.35 21.8-28.83 20.5-30.3 18.05-30.3L18.05-30.3 10.35-30.3 8.7-18.15ZM28.15 0L31.85-26.3 35.05-26.3 35.05-22.1Q36.1-24.3 37.22-25.6 38.35-26.9 40.3-26.9L40.3-26.9Q41.35-26.9 42.2-26.5L42.2-26.5 41.6-22.25 40.25-22.25Q38.2-22.25 36.52-20.4 34.85-18.55 34.4-15.2L34.4-15.2 32.25 0 28.15 0ZM51.25 0.6Q47.1 0.6 44.92-1.78 42.75-4.15 42.75-8.95L42.75-8.95Q42.75-16.1 45.27-21.5 47.8-26.9 53.9-26.9L53.9-26.9Q62-26.9 62-17.45L62-17.45Q62-14.5 61.6-11.95L61.6-11.95 47.15-11.95Q47-10.4 47-9.3L47-9.3Q47-3.05 51.25-3.05L51.25-3.05Q53.4-3.05 54.92-4.75 56.45-6.45 56.8-8.9L56.8-8.9 60.95-8.9Q60.3-4.8 57.77-2.1 55.25 0.6 51.25 0.6L51.25 0.6ZM47.65-15.6L57.7-15.6Q57.75-16.25 57.75-17.4L57.75-17.4Q57.75-23.25 53.9-23.25L53.9-23.25Q51.4-23.25 49.87-21.08 48.35-18.9 47.65-15.6L47.65-15.6ZM72.14 0.6Q69.09 0.6 67.29-1.85 65.49-4.3 65.49-9.15L65.49-9.15Q65.49-14.9 66.97-18.9 68.44-22.9 70.77-24.9 73.09-26.9 75.64-26.9L75.64-26.9Q79.29-26.9 80.89-23.4L80.89-23.4 82.69-36.15 86.79-36.15 81.74 0 78.49 0 78.49-3.55Q75.94 0.6 72.14 0.6L72.14 0.6ZM73.39-3.05Q75.74-3.05 77.22-5.65 78.69-8.25 79.29-11.63 79.89-15 79.89-17.6L79.89-17.6Q79.89-23.25 76.24-23.25L76.24-23.25Q73.79-23.25 72.32-20.73 70.84-18.2 70.27-14.85 69.69-11.5 69.69-8.75L69.69-8.75Q69.69-3.05 73.39-3.05L73.39-3.05ZM88.49 0L92.14-26.3 96.24-26.3 92.54 0 88.49 0ZM92.74-31.4L93.44-36.15 97.69-36.15 96.99-31.4 92.74-31.4ZM107.59 0.6Q103.79 0.6 101.66-1.78 99.54-4.15 99.54-8.95L99.54-8.95Q99.54-16.25 101.89-21.58 104.24-26.9 109.99-26.9L109.99-26.9Q117.49-26.9 117.49-17.45L117.49-17.45 117.49-16.55 113.24-16.55 113.24-17.4Q113.24-23.25 109.99-23.25L109.99-23.25Q107.49-23.25 106.11-20.6 104.74-17.95 104.26-14.75 103.79-11.55 103.79-9.3L103.79-9.3Q103.79-6.3 104.74-4.67 105.69-3.05 107.49-3.05L107.49-3.05Q109.49-3.05 110.89-4.95 112.29-6.85 112.59-9.6L112.59-9.6 116.69-9.6Q116.19-5.3 113.79-2.35 111.39 0.6 107.59 0.6L107.59 0.6ZM124.24 0.5Q122.09 0.5 121.14-0.68 120.19-1.85 120.19-3.75L120.19-3.75Q120.19-5 122.79-22.65L122.79-22.65 120.54-22.65 121.04-26.3 123.29-26.3 125.09-33.6 128.44-33.6 127.39-26.3 130.94-26.3 130.44-22.65 126.89-22.65Q124.39-5.45 124.39-4.9L124.39-4.9Q124.39-3.05 126.24-3.05L126.24-3.05 127.69-3.05 127.29-0.2Q126.69 0.1 125.84 0.3 124.99 0.5 124.24 0.5L124.24 0.5ZM142.93 0L147.78-34.3 151.38-34.3 161.13-12.75Q161.63-11.5 162.73-8.15L162.73-8.15 162.88-8.2 163.38-12.75 166.43-34.3 170.38-34.3 165.53 0 162.08 0 152.23-21.85Q151.63-23.25 150.58-26.45L150.58-26.45 150.43-26.4Q150.18-23.2 149.98-21.85L149.98-21.85 146.88 0 142.93 0ZM169.53 0L179.08-13.5 173.48-26.3 178.23-26.3 181.83-17.45 181.88-17.45 187.78-26.3 192.68-26.3 183.53-13.45 189.38 0 184.63 0 180.78-9.5 180.73-9.5 174.33 0 169.53 0ZM197.13 0.5Q194.98 0.5 194.03-0.68 193.08-1.85 193.08-3.75L193.08-3.75Q193.08-5 195.68-22.65L195.68-22.65 193.43-22.65 193.93-26.3 196.18-26.3 197.98-33.6 201.33-33.6 200.28-26.3 203.83-26.3 203.33-22.65 199.78-22.65Q197.28-5.45 197.28-4.9L197.28-4.9Q197.28-3.05 199.13-3.05L199.13-3.05 200.58-3.05 200.18-0.2Q199.58 0.1 198.73 0.3 197.88 0.5 197.13 0.5L197.13 0.5Z" opacity="1" transform="matrix(1,0,0,1,0,0)" fill="#111111" class="wordmark-text-0" data-fill-palette-color="primary" id="text-0"></path></svg></g></svg></g></svg></g></svg></g><g><svg viewBox="0 0 99.37109829334652 99.37109829334652" height="99.37109829334652" width="99.37109829334652"><g><svg xmlns="http://www.w3.org/2000/svg" xmlns:xlink="http://www.w3.org/1999/xlink" version="1.1" x="0" y="0" viewBox="0.4 0.5 47.1 47.1" style="enable-background:new 0 0 48 48;" xml:space="preserve" height="99.37109829334652" width="99.37109829334652" class="icon-icon-0" data-fill-palette-color="accent" id="icon-0"></svg></g></svg></g></svg></g><defs></defs><mask id="8e02a9d6-848a-4986-86c5-601e1ada0b54"><g id="SvgjsG7292"><svg viewBox="0 0 395.52 76.78428915196923" height="76.78428915196923" width="395.52"><g><svg viewBox="0 0 511.8658677583972 99.37109829334652" height="76.78428915196923" width="395.52"><g transform="matrix(1,0,0,1,116.34586775839722,13.733632253277271)"><svg viewBox="0 0 395.52 71.90383378679198" height="71.90383378679198" width="395.52"><g id="SvgjsG7291"><svg viewBox="0 0 395.52 71.90383378679198" height="71.90383378679198" width="395.52" id="SvgjsSvg7290"><g><svg viewBox="0 0 395.52 71.90383378679198" height="71.90383378679198" width="395.52"><g transform="matrix(1,0,0,1,0,0)"><svg width="395.52" viewBox="1.7 -36.15 202.13000000000002 36.75" height="71.90383378679198" data-palette-color="#111111"><path d="M1.7 0L6.55-34.3 18.3-34.3Q22.95-34.3 25.35-31.95 27.75-29.6 27.75-25.6L27.75-25.6Q27.75-22.05 26.3-19.45 24.85-16.85 22.23-15.5 19.6-14.15 16.15-14.15L16.15-14.15 8.1-14.15 6.1 0 1.7 0ZM8.7-18.15L16.6-18.15Q19.45-18.15 21.28-19.98 23.1-21.8 23.1-24.8L23.1-24.8Q23.1-27.35 21.8-28.83 20.5-30.3 18.05-30.3L18.05-30.3 10.35-30.3 8.7-18.15ZM28.15 0L31.85-26.3 35.05-26.3 35.05-22.1Q36.1-24.3 37.22-25.6 38.35-26.9 40.3-26.9L40.3-26.9Q41.35-26.9 42.2-26.5L42.2-26.5 41.6-22.25 40.25-22.25Q38.2-22.25 36.52-20.4 34.85-18.55 34.4-15.2L34.4-15.2 32.25 0 28.15 0ZM51.25 0.6Q47.1 0.6 44.92-1.78 42.75-4.15 42.75-8.95L42.75-8.95Q42.75-16.1 45.27-21.5 47.8-26.9 53.9-26.9L53.9-26.9Q62-26.9 62-17.45L62-17.45Q62-14.5 61.6-11.95L61.6-11.95 47.15-11.95Q47-10.4 47-9.3L47-9.3Q47-3.05 51.25-3.05L51.25-3.05Q53.4-3.05 54.92-4.75 56.45-6.45 56.8-8.9L56.8-8.9 60.95-8.9Q60.3-4.8 57.77-2.1 55.25 0.6 51.25 0.6L51.25 0.6ZM47.65-15.6L57.7-15.6Q57.75-16.25 57.75-17.4L57.75-17.4Q57.75-23.25 53.9-23.25L53.9-23.25Q51.4-23.25 49.87-21.08 48.35-18.9 47.65-15.6L47.65-15.6ZM72.14 0.6Q69.09 0.6 67.29-1.85 65.49-4.3 65.49-9.15L65.49-9.15Q65.49-14.9 66.97-18.9 68.44-22.9 70.77-24.9 73.09-26.9 75.64-26.9L75.64-26.9Q79.29-26.9 80.89-23.4L80.89-23.4 82.69-36.15 86.79-36.15 81.74 0 78.49 0 78.49-3.55Q75.94 0.6 72.14 0.6L72.14 0.6ZM73.39-3.05Q75.74-3.05 77.22-5.65 78.69-8.25 79.29-11.63 79.89-15 79.89-17.6L79.89-17.6Q79.89-23.25 76.24-23.25L76.24-23.25Q73.79-23.25 72.32-20.73 70.84-18.2 70.27-14.85 69.69-11.5 69.69-8.75L69.69-8.75Q69.69-3.05 73.39-3.05L73.39-3.05ZM88.49 0L92.14-26.3 96.24-26.3 92.54 0 88.49 0ZM92.74-31.4L93.44-36.15 97.69-36.15 96.99-31.4 92.74-31.4ZM107.59 0.6Q103.79 0.6 101.66-1.78 99.54-4.15 99.54-8.95L99.54-8.95Q99.54-16.25 101.89-21.58 104.24-26.9 109.99-26.9L109.99-26.9Q117.49-26.9 117.49-17.45L117.49-17.45 117.49-16.55 113.24-16.55 113.24-17.4Q113.24-23.25 109.99-23.25L109.99-23.25Q107.49-23.25 106.11-20.6 104.74-17.95 104.26-14.75 103.79-11.55 103.79-9.3L103.79-9.3Q103.79-6.3 104.74-4.67 105.69-3.05 107.49-3.05L107.49-3.05Q109.49-3.05 110.89-4.95 112.29-6.85 112.59-9.6L112.59-9.6 116.69-9.6Q116.19-5.3 113.79-2.35 111.39 0.6 107.59 0.6L107.59 0.6ZM124.24 0.5Q122.09 0.5 121.14-0.68 120.19-1.85 120.19-3.75L120.19-3.75Q120.19-5 122.79-22.65L122.79-22.65 120.54-22.65 121.04-26.3 123.29-26.3 125.09-33.6 128.44-33.6 127.39-26.3 130.94-26.3 130.44-22.65 126.89-22.65Q124.39-5.45 124.39-4.9L124.39-4.9Q124.39-3.05 126.24-3.05L126.24-3.05 127.69-3.05 127.29-0.2Q126.69 0.1 125.84 0.3 124.99 0.5 124.24 0.5L124.24 0.5ZM142.93 0L147.78-34.3 151.38-34.3 161.13-12.75Q161.63-11.5 162.73-8.15L162.73-8.15 162.88-8.2 163.38-12.75 166.43-34.3 170.38-34.3 165.53 0 162.08 0 152.23-21.85Q151.63-23.25 150.58-26.45L150.58-26.45 150.43-26.4Q150.18-23.2 149.98-21.85L149.98-21.85 146.88 0 142.93 0ZM169.53 0L179.08-13.5 173.48-26.3 178.23-26.3 181.83-17.45 181.88-17.45 187.78-26.3 192.68-26.3 183.53-13.45 189.38 0 184.63 0 180.78-9.5 180.73-9.5 174.33 0 169.53 0ZM197.13 0.5Q194.98 0.5 194.03-0.68 193.08-1.85 193.08-3.75L193.08-3.75Q193.08-5 195.68-22.65L195.68-22.65 193.43-22.65 193.93-26.3 196.18-26.3 197.98-33.6 201.33-33.6 200.28-26.3 203.83-26.3 203.33-22.65 199.78-22.65Q197.28-5.45 197.28-4.9L197.28-4.9Q197.28-3.05 199.13-3.05L199.13-3.05 200.58-3.05 200.18-0.2Q199.58 0.1 198.73 0.3 197.88 0.5 197.13 0.5L197.13 0.5Z" opacity="1" transform="matrix(1,0,0,1,0,0)" fill="black" class="wordmark-text-0" id="SvgjsPath7289"></path></svg></g></svg></g></svg></g></svg></g><g><svg viewBox="0 0 99.37109829334652 99.37109829334652" height="99.37109829334652" width="99.37109829334652"><g><svg xmlns="http://www.w3.org/2000/svg" xmlns:xlink="http://www.w3.org/1999/xlink" version="1.1" x="0" y="0" viewBox="0.4 0.5 47.1 47.1" style="enable-background:new 0 0 48 48;" xml:space="preserve" height="99.37109829334652" width="99.37109829334652" class="icon-icon-0" data-fill-palette-color="accent" id="SvgjsSvg7288"><g fill="white"><path class="" d="M45.5 43.6H4.4V2.5C4.4 1.4 3.5 0.5 2.4 0.5S0.4 1.4 0.4 2.5V45.6C0.4 46.7 1.3 47.6 2.4 47.6H45.5C46.6 47.6 47.5 46.7 47.5 45.6S46.6 43.6 45.5 43.6" fill="white"></path><path class="" d="M16.6 39.7C20.2 39.7 23.1 36.8 23.1 33.3 23.1 31.2 22 29.3 20.4 28.1L27.4 15.1C27.8 15.2 28.1 15.2 28.5 15.2S29.3 15.2 29.7 15.1L36.5 26.5C35.2 27.7 34.4 29.4 34.4 31.2 34.4 34.7 37.3 37.6 40.9 37.6S47.4 34.7 47.4 31.2 44.5 24.8 40.9 24.8C40.6 24.8 40.3 24.8 40.1 24.9L33.2 13.3C34.3 12.1 35.1 10.6 35.1 8.8 35.1 5.3 32.2 2.4 28.6 2.4 25 2.3 22 5.2 22 8.7 22 10.5 22.7 12.1 23.9 13.2L16.6 26.7C13 26.7 10.1 29.6 10.1 33.1 10 36.8 13 39.7 16.6 39.7" fill="white"></path></g></svg></g></svg></g></svg></g><defs><mask></mask></defs></svg><rect width="395.52" height="76.78428915196923" fill="black" stroke="none" visibility="hidden"></rect></g></mask><linearGradient x1="0.054" x2="0.941" y1="0.5" y2="0.5" id="6a155823-0fd6-49ab-94b8-25955df2127d"><stop stop-color="#0f3054" offset="0"></stop><stop stop-color="#3b8dcb" offset="0.498"></stop><stop stop-color="#0f3054" offset="1"></stop></linearGradient><rect width="395.52" height="76.78428915196923" fill="url(#6a155823-0fd6-49ab-94b8-25955df2127d)" mask="url(#8e02a9d6-848a-4986-86c5-601e1ada0b54)" data-fill-palette-color="accent"></rect></svg><rect width="395.52" height="76.78428915196923" fill="none" stroke="none" visibility="hidden"></rect></g></svg></g></svg>